<?xml version="1.0" encoding="utf-8"?>
<!-- Generator: Adobe Illustrator 24.1.1, SVG Export Plug-In . SVG Version: 6.00 Build 0)  -->
<svg version="1.2" baseProfile="tiny" id="_x31_" xmlns="http://www.w3.org/2000/svg" xmlns:xlink="http://www.w3.org/1999/xlink"
	 x="0px" y="0px" viewBox="0 0 110.7 110.69" xml:space="preserve">
<g>
	<g>
		<g id="ARC_2_">
			<g id="XMLID_1_">
				<g>
					<linearGradient id="SVGID_1_" gradientUnits="userSpaceOnUse" x1="19.2187" y1="56.3852" x2="93.9037" y2="56.3852">
						<stop  offset="0" style="stop-color:#DED1A8"/>
						<stop  offset="0.0488" style="stop-color:#D4C7A1"/>
						<stop  offset="0.1211" style="stop-color:#BAAE8F"/>
						<stop  offset="0.2081" style="stop-color:#928872"/>
						<stop  offset="0.3065" style="stop-color:#615A50"/>
						<stop  offset="0.4131" style="stop-color:#2E2C2A"/>
						<stop  offset="0.4607" style="stop-color:#1A1A1A"/>
						<stop  offset="0.5133" style="stop-color:#1F1E20"/>
						<stop  offset="0.6015" style="stop-color:#2C2A30"/>
						<stop  offset="0.7144" style="stop-color:#423B4C"/>
						<stop  offset="0.8477" style="stop-color:#615074"/>
						<stop  offset="0.9967" style="stop-color:#8A6BAC"/>
						<stop  offset="1" style="stop-color:#8B6CAD"/>
					</linearGradient>
					<path fill="url(#SVGID_1_)" d="M92.47,54.64C86.7,52.08,80,54.81,77.51,60.75c-2.49,5.94,0.17,12.83,5.94,15.39
						c0.95,0.42,1.94,0.71,2.96,0.85c-0.06,5.87-4.73,10.57-10.43,10.51c-0.73-6.42-6.38-11.02-12.62-10.27
						c-6.24,0.75-10.71,6.56-9.99,12.99c0.12,1.05,0.38,2.08,0.77,3.07c-4.97,2.88-11.26,1.07-14.07-4.04
						c5.04-3.86,6.09-11.2,2.34-16.38c-3.75-5.19-10.88-6.26-15.92-2.4c-0.83,0.63-1.57,1.38-2.2,2.22
						c-4.91-2.99-6.54-9.5-3.64-14.55c5.77,2.56,12.47-0.17,14.96-6.11c1.66-3.95,1.03-8.33-1.27-11.57
						c0.39-0.75,0.68-1.54,1.02-2.36c0.31-1,0.37-1.99,0.18-2.99c1.57-0.38,3.17-0.71,4.78-0.95c0.54-0.08,1.11-0.3,1.65-0.61
						c2.19,1.56,4.93,2.34,7.79,2c6.24-0.75,10.71-6.56,9.99-12.99c-0.12-1.05-0.38-2.08-0.77-3.07h0
						c4.97-2.88,11.26-1.07,14.06,4.04c-5.04,3.86-6.09,11.2-2.34,16.38c3.75,5.19,10.88,6.26,15.92,2.4
						c0.83-0.63,1.57-1.38,2.2-2.22C93.74,43.08,95.37,49.59,92.47,54.64z"/>
				</g>
				<g>
				</g>
			</g>
		</g>
	</g>
	<g>
		<g id="ARC_1_">
			<g id="XMLID_2_">
				<g>
					<linearGradient id="SVGID_2_" gradientUnits="userSpaceOnUse" x1="35.6657" y1="72.7779" x2="87.9251" y2="20.5184">
						<stop  offset="0" style="stop-color:#FCD684"/>
						<stop  offset="0.0424" style="stop-color:#F8D58B"/>
						<stop  offset="0.1052" style="stop-color:#EBD29A"/>
						<stop  offset="0.1808" style="stop-color:#D6CDB0"/>
						<stop  offset="0.2655" style="stop-color:#B9C5CA"/>
						<stop  offset="0.3268" style="stop-color:#9EBDDB"/>
						<stop  offset="0.3985" style="stop-color:#9CB8D7"/>
						<stop  offset="0.5186" style="stop-color:#97A9CD"/>
						<stop  offset="0.6724" style="stop-color:#918FBB"/>
						<stop  offset="0.8519" style="stop-color:#8867A0"/>
						<stop  offset="1" style="stop-color:#804087"/>
					</linearGradient>
					<path fill="url(#SVGID_2_)" d="M51.72,91.2c-4.97,2.88-11.26,1.07-14.07-4.04c5.04-3.86,6.09-11.2,2.34-16.38
						c-3.75-5.19-10.88-6.26-15.92-2.4c-0.83,0.63-1.57,1.38-2.2,2.22c-4.91-2.99-6.54-9.5-3.64-14.55
						c5.77,2.56,12.47-0.17,14.96-6.11c2.49-5.94-0.17-12.83-5.94-15.39c-0.95-0.42-1.94-0.71-2.96-0.85
						c0.06-5.87,4.73-10.57,10.43-10.51c0.73,6.42,6.38,11.02,12.62,10.27c6.24-0.75,10.71-6.56,9.99-12.99
						c-0.12-1.05-0.38-2.08-0.77-3.07c4.97-2.88,11.26-1.07,14.06,4.04c-5.04,3.86-6.09,11.2-2.34,16.38
						c3.75,5.19,10.88,6.26,15.92,2.4c0.83-0.63,1.57-1.38,2.2-2.22c4.91,2.99,6.54,9.5,3.64,14.55
						c-5.77-2.56-12.47,0.17-14.96,6.11c-2.49,5.94,0.17,12.83,5.94,15.39c0.95,0.42,1.94,0.71,2.96,0.85
						c-0.06,5.87-4.73,10.57-10.43,10.51C72.83,79,67.18,74.4,60.94,75.15c-6.24,0.75-10.71,6.56-9.99,12.99
						C51.08,89.19,51.33,90.22,51.72,91.2z"/>
				</g>
				<g>
				</g>
			</g>
		</g>
	</g>
</g>
</svg>
