<?xml version="1.0" encoding="utf-8"?>
<!-- Generator: Adobe Illustrator 24.1.1, SVG Export Plug-In . SVG Version: 6.00 Build 0)  -->
<svg version="1.2" baseProfile="tiny" id="backgroung"
	 xmlns="http://www.w3.org/2000/svg" xmlns:xlink="http://www.w3.org/1999/xlink" x="0px" y="0px" viewBox="0 0 110.7 110.69"
	 xml:space="preserve">
<g>
	<g id="ARC_4_">
		<g id="XMLID_3_">
			<g>
				<linearGradient id="SVGID_1_" gradientUnits="userSpaceOnUse" x1="20.082" y1="54.5327" x2="94.767" y2="54.5327">
					<stop  offset="0" style="stop-color:#DED1A8"/>
					<stop  offset="0.0488" style="stop-color:#D4C7A1"/>
					<stop  offset="0.1211" style="stop-color:#BAAE8F"/>
					<stop  offset="0.2081" style="stop-color:#928872"/>
					<stop  offset="0.3065" style="stop-color:#615A50"/>
					<stop  offset="0.4131" style="stop-color:#2E2C2A"/>
					<stop  offset="0.4607" style="stop-color:#1A1A1A"/>
					<stop  offset="0.5133" style="stop-color:#1F1E20"/>
					<stop  offset="0.6015" style="stop-color:#2C2A30"/>
					<stop  offset="0.7144" style="stop-color:#423B4C"/>
					<stop  offset="0.8477" style="stop-color:#615074"/>
					<stop  offset="0.9967" style="stop-color:#8A6BAC"/>
					<stop  offset="1" style="stop-color:#8B6CAD"/>
				</linearGradient>
				<path fill="url(#SVGID_1_)" d="M89.69,38.24c4.91,2.99,6.54,9.5,3.64,14.55c-5.77-2.56-12.47,0.17-14.96,6.11
					c-2.49,5.94,0.17,12.83,5.94,15.39c0.95,0.42,1.94,0.71,2.96,0.85C87.22,81,82.55,85.71,76.84,85.65
					c-0.73-6.42-6.38-11.02-12.62-10.27c-6.24,0.75-10.71,6.56-9.99,12.99c0.12,1.05,0.38,2.08,0.77,3.07
					c-4.97,2.88-11.26,1.07-14.07-4.04c5.04-3.86,6.09-11.2,2.34-16.38c-3.75-5.19-10.88-6.26-15.92-2.4
					c-0.83,0.63-1.57,1.38-2.2,2.22c-4.91-2.99-6.54-9.5-3.64-14.55c5.77,2.56,12.47-0.17,14.96-6.11
					c1.66-3.95,1.03-8.33-1.27-11.57c0.39-0.75,0.68-1.54,1.02-2.36c0.31-1,0.37-1.99,0.18-2.99c1.57-0.38,3.17-0.71,4.78-0.95
					c0.54-0.08,1.11-0.3,1.65-0.61c2.19,1.56,4.93,2.34,7.79,2c6.24-0.75,10.71-6.56,9.99-12.99c-0.12-1.05-0.38-2.08-0.77-3.07h0
					c4.97-2.88,11.26-1.07,14.06,4.04c-5.04,3.86-6.09,11.2-2.34,16.38c3.75,5.19,10.88,6.26,15.92,2.4
					C88.32,39.82,89.06,39.08,89.69,38.24z"/>
			</g>
			<g>
			</g>
		</g>
	</g>
</g>
<linearGradient id="SVGID_2_" gradientUnits="userSpaceOnUse" x1="0.0171" y1="110.6863" x2="110.7034" y2="-1.242626e-09">
	<stop  offset="0" style="stop-color:#9D9478"/>
	<stop  offset="0.0601" style="stop-color:#928A71"/>
	<stop  offset="0.169" style="stop-color:#797160"/>
	<stop  offset="0.3143" style="stop-color:#544D45"/>
	<stop  offset="0.4886" style="stop-color:#292427"/>
	<stop  offset="0.5223" style="stop-color:#211E22"/>
	<stop  offset="0.9944" style="stop-color:#B68AA9"/>
</linearGradient>
<rect x="0.02" fill="url(#SVGID_2_)" width="110.69" height="110.69"/>
</svg>
